<?xml version="1.0" encoding="utf-8"?>
<!-- Generator: Adobe Illustrator 16.0.0, SVG Export Plug-In . SVG Version: 6.00 Build 0)  -->
<!DOCTYPE svg PUBLIC "-//W3C//DTD SVG 1.1//EN" "http://www.w3.org/Graphics/SVG/1.1/DTD/svg11.dtd">
<svg version="1.1" id="图层_1" xmlns="http://www.w3.org/2000/svg" xmlns:xlink="http://www.w3.org/1999/xlink" x="0px" y="0px"
	 width="197.082px" height="154.746px" viewBox="0 0 197.082 154.746" enable-background="new 0 0 197.082 154.746"
	 xml:space="preserve">
<g>
	<path fill="#7E7E7E" d="M97.798,93.72l0.061-0.01c0.158-0.023,0.355-0.068,0.658-0.148c0.238-0.064,0.492-0.143,0.801-0.244
		c0.271-0.092,0.535-0.184,0.789-0.279c0.254-0.098,0.469-0.188,0.637-0.273c0.226-0.104,0.435-0.233,0.627-0.391
		c0.123-0.096,0.238-0.193,0.347-0.291c0.09-0.078,0.196-0.184,0.418-0.406c0.164-0.17,7.036-7.246,7.088-7.299l0.039-0.043
		c0.219-0.246,0.387-0.52,0.493-0.812c0.107-0.289,0.16-0.584,0.16-0.881c0-0.224-0.02-0.438-0.061-0.644
		c-0.043-0.209-0.107-0.414-0.191-0.608c-0.188-0.41-0.442-0.798-0.762-1.15c-0.334-0.372-0.662-0.644-1-0.825
		c-0.178-0.093-0.355-0.164-0.555-0.226c-0.238-0.071-0.477-0.112-0.729-0.123l-0.098-0.003c-0.254,0-0.514,0.039-0.766,0.117
		c-0.305,0.094-0.594,0.256-0.889,0.49c-0.127,0.108-0.271,0.242-0.422,0.389c-0.146,0.143-6.691,6.863-6.867,7.051l-0.353,0.369
		c-0.194,0.199-0.349,0.389-0.469,0.58c-0.097,0.152-0.187,0.324-0.261,0.496c-0.084,0.174-0.158,0.371-0.237,0.621
		c-0.076,0.229-0.15,0.479-0.229,0.752l-0.039,0.135c-0.061,0.209-0.119,0.412-0.174,0.613c-0.086,0.316-0.135,0.545-0.162,0.74
		c-0.1,0.641,0.029,1.209,0.373,1.645C96.251,93.345,96.806,93.83,97.798,93.72z M105.439,81.427
		c0.027-0.026,0.057-0.055,0.088-0.082l0.057-0.055c0.138-0.136,0.252-0.242,0.338-0.312c0.105-0.086,0.212-0.145,0.314-0.176
		c0.1-0.031,0.195-0.045,0.287-0.045h0.023c0.113,0.006,0.219,0.021,0.316,0.051c0.108,0.033,0.198,0.068,0.271,0.105
		c0.163,0.09,0.348,0.25,0.553,0.471c0.205,0.23,0.363,0.474,0.478,0.718c0.026,0.062,0.051,0.139,0.069,0.241
		c0.021,0.101,0.029,0.195,0.029,0.298c0,0.092-0.019,0.188-0.054,0.278c-0.03,0.088-0.086,0.176-0.157,0.26l-0.55,0.552
		l-2.147-2.215L105.439,81.427z M97.292,91.651c0.014-0.104,0.051-0.272,0.115-0.513l0.207-0.731
		c0.073-0.254,0.143-0.483,0.211-0.692c0.086-0.265,0.133-0.367,0.166-0.435c0.047-0.11,0.102-0.215,0.162-0.308
		c0.055-0.09,0.141-0.194,0.256-0.311l0.36-0.379c0.147-0.16,3.584-3.705,5.052-5.219l0.286-0.297L106.262,85l-3.687,3.812
		c-0.346,0.349-0.656,0.666-0.932,0.957l-0.775,0.805c-0.11,0.111-0.186,0.188-0.233,0.228c-0.063,0.063-0.156,0.141-0.279,0.238
		c-0.098,0.077-0.2,0.143-0.317,0.194c-0.113,0.058-0.285,0.131-0.508,0.215c-0.23,0.089-0.474,0.175-0.724,0.259
		c-0.271,0.09-0.502,0.159-0.713,0.217c-0.22,0.059-0.386,0.098-0.479,0.113c-0.048,0.006-0.082,0.008-0.113,0.008
		c-0.033,0-0.082-0.002-0.121-0.013l-0.072-0.021l-0.018-0.071C97.273,91.871,97.273,91.773,97.292,91.651z"/>
	<path fill="#7E7E7E" d="M107.066,76.671c0,0.588,0.467,1.065,1.039,1.065s1.037-0.479,1.037-1.065v-6.25
		c0-2.021-1.596-3.664-3.557-3.664H87.74c-1.961,0-3.559,1.644-3.559,3.664v19.971c0,2.021,1.598,3.666,3.559,3.666h5.371
		c0.572,0,1.037-0.479,1.037-1.064c0-0.588-0.465-1.066-1.037-1.066H87.74c-0.816,0-1.482-0.688-1.482-1.534V70.421
		c0-0.846,0.666-1.533,1.482-1.533h17.845c0.816,0,1.48,0.688,1.48,1.533V76.671z"/>
	<path fill="#7E7E7E" d="M102.541,71.515H90.462c-0.572,0-1.037,0.477-1.037,1.065c0,0.586,0.465,1.065,1.037,1.065h12.079
		c0.574,0,1.039-0.479,1.039-1.065C103.58,71.992,103.115,71.515,102.541,71.515z"/>
	<path fill="#7E7E7E" d="M103.58,77.187c0-0.588-0.465-1.066-1.039-1.066H90.462c-0.572,0-1.037,0.479-1.037,1.066
		s0.465,1.064,1.037,1.064h12.079C103.115,78.251,103.58,77.775,103.58,77.187z"/>
	<path fill="#7E7E7E" d="M90.462,80.728c-0.572,0-1.037,0.479-1.037,1.066s0.465,1.063,1.037,1.063h8.334
		c0.574,0,1.039-0.478,1.039-1.063c0-0.588-0.465-1.066-1.039-1.066H90.462z"/>
	<path fill="#7E7E7E" d="M96.232,86.401c0-0.588-0.465-1.065-1.037-1.065h-4.732c-0.572,0-1.037,0.479-1.037,1.065
		s0.465,1.063,1.037,1.063h4.732C95.767,87.466,96.232,86.989,96.232,86.401z"/>
	<path fill="#7E7E7E" d="M96.251,55.773c-13.372,0-24.25,10.878-24.25,24.25c0,13.371,10.879,24.25,24.25,24.25
		c5.102,0,8.705-1.002,12.438-3.455c0.205-0.135,0.404-0.277,0.604-0.418l0.123-0.088c0.022-0.021,0.756-0.652,0.238-1.506
		c-0.188-0.307-0.451-0.457-0.804-0.457c-0.521,0-1.03,0.332-1.037,0.336c-0.055,0.037-0.108,0.078-0.166,0.117
		c-0.062,0.045-0.127,0.09-0.19,0.133c-3.338,2.193-6.584,3.088-11.207,3.088c-12.131,0-22-9.869-22-22s9.869-22,22-22
		c12.131,0,22,9.869,22,22c0,5.055-1.668,9.807-4.824,13.742c0,0-0.686,1.078-0.145,1.582c0.264,0.246,0.551,0.371,0.854,0.371
		c0.478,0,0.836-0.305,0.838-0.309c3.56-4.316,5.524-9.785,5.524-15.388C120.501,66.651,109.623,55.773,96.251,55.773z"/>
</g>
</svg>
