<?xml version="1.0" encoding="utf-8"?>
<!-- Generator: Adobe Illustrator 16.0.0, SVG Export Plug-In . SVG Version: 6.00 Build 0)  -->
<!DOCTYPE svg PUBLIC "-//W3C//DTD SVG 1.1//EN" "http://www.w3.org/Graphics/SVG/1.1/DTD/svg11.dtd">
<svg version="1.1" id="图层_1" xmlns="http://www.w3.org/2000/svg" xmlns:xlink="http://www.w3.org/1999/xlink" x="0px" y="0px"
	 width="197.082px" height="154.746px" viewBox="0 0 197.082 154.746" enable-background="new 0 0 197.082 154.746"
	 xml:space="preserve">
<path fill="#7E7E7E" d="M96.248,55.773c-13.371,0-24.25,10.878-24.25,24.25c0,13.371,10.879,24.25,24.25,24.25
	c5.104,0,8.705-1.002,12.441-3.455c0.207-0.137,0.41-0.281,0.613-0.426l0.113-0.08c0.023-0.021,0.754-0.652,0.234-1.506
	c-0.189-0.307-0.449-0.457-0.801-0.457c-0.521,0-1.029,0.332-1.035,0.336c-0.051,0.035-0.105,0.072-0.154,0.109
	c-0.068,0.047-0.137,0.096-0.207,0.143c-3.336,2.191-6.582,3.086-11.205,3.086c-12.13,0-22-9.869-22-22s9.869-22,22-22
	c12.133,0,22.002,9.869,22.002,22c0,5.053-1.67,9.805-4.826,13.742c0,0-0.686,1.078-0.145,1.582
	c0.264,0.246,0.551,0.371,0.854,0.371c0.479,0,0.836-0.305,0.84-0.31c3.559-4.313,5.527-9.784,5.527-15.387
	C120.5,66.651,109.621,55.773,96.248,55.773z"/>
<path fill="#7E7E7E" d="M110.826,69.148L96.85,65.393c-0.039-0.009-0.049-0.009-0.051-0.009l-0.113-0.013l-14.766,4.212
	c-0.011,0.001-0.275,0.022-0.566,0.284c-0.188,0.169-0.294,0.66-0.299,0.691l-0.077,18.18c0,0.412,0.265,0.773,0.66,0.898
	l15.63,4.961c0.006,0.004,0.135,0.077,0.379,0.077c0.199,0,0.305-0.071,0.303-0.071l12.951-5.597
	c0.373-0.136,0.623-0.491,0.623-0.884V70.057C111.523,69.633,111.236,69.26,110.826,69.148z M96.697,75.631v16.809l-13.82-4.389
	V71.623L96.697,75.631z M97.914,74.02L85.28,70.372l1.984-0.557l14.242,4.146l0.061,6.776c0,0.312,0.154,0.604,0.416,0.78
	c0.254,0.171,0.584,0.21,0.879,0.097l3.842-1.824c0.361-0.141,0.605-0.492,0.605-0.877l0.055-7.061c0-0.426-0.289-0.8-0.699-0.909
	l-11.583-3.3l1.693-0.479l12.818,3.513l0.031,16.788l-11.029,4.915V74.924C98.594,74.508,98.314,74.136,97.914,74.02z
	 M105.791,78.586l-2.516,1.163V73.52c0.002-0.426-0.285-0.801-0.701-0.911l-12.663-3.564l2.691-0.696l13.206,3.844L105.791,78.586z"
	/>
</svg>
