<?xml version="1.0" encoding="utf-8"?>
<!-- Generator: Adobe Illustrator 16.0.0, SVG Export Plug-In . SVG Version: 6.00 Build 0)  -->
<!DOCTYPE svg PUBLIC "-//W3C//DTD SVG 1.1//EN" "http://www.w3.org/Graphics/SVG/1.1/DTD/svg11.dtd">
<svg version="1.1" id="图层_1" xmlns="http://www.w3.org/2000/svg" xmlns:xlink="http://www.w3.org/1999/xlink" x="0px" y="0px"
	 width="197.081px" height="154.745px" viewBox="0 0 197.081 154.745" enable-background="new 0 0 197.081 154.745"
	 xml:space="preserve">
<path fill="#7E7E7E" d="M96.251,55.773c-13.372,0-24.25,10.878-24.25,24.25s10.878,24.25,24.25,24.25c5.1,0,8.705-1.001,12.44-3.455
	c0.212-0.14,0.418-0.286,0.625-0.434l0.101-0.072c0.024-0.021,0.754-0.652,0.236-1.506c-0.187-0.307-0.449-0.456-0.802-0.456
	c-0.519,0-1.029,0.332-1.034,0.336c-0.052,0.034-0.103,0.071-0.155,0.108c-0.068,0.048-0.136,0.097-0.206,0.143
	c-3.335,2.191-6.581,3.086-11.205,3.086c-12.131,0-22-9.869-22-22s9.869-22,22-22c12.131,0,22,9.869,22,22
	c0,5.055-1.668,9.807-4.826,13.742c0.002,0-0.684,1.079-0.143,1.583c0.264,0.246,0.551,0.37,0.854,0.37
	c0.477,0,0.836-0.305,0.84-0.308c3.557-4.315,5.525-9.786,5.525-15.388C120.501,66.651,109.623,55.773,96.251,55.773z"/>
<path fill="#7E7E7E" d="M110.968,76.981h-4.023v-2.316h7.015c0.547,0,0.957-0.41,0.957-0.955c0-0.588-0.35-0.998-0.852-0.998h-7.01
	l-0.11-3.139c0-0.64-0.367-1.051-0.936-1.051H90.116c-0.567,0-0.934,0.411-0.934,1.047v3.648h-4.363
	c-0.375,0-0.741,0.318-0.833,0.724l-0.013,0.033l-3.639,6.582c-0.153,0.2-0.229,0.455-0.229,0.751v7.044
	c0,0.637,0.367,1.048,0.934,1.048h1.422l0.018,0.104c0.287,1.696,1.66,2.882,3.34,2.882s3.053-1.186,3.34-2.882l0.018-0.104h8.826
	l0.018,0.104c0.286,1.696,1.66,2.882,3.34,2.882s3.053-1.186,3.34-2.882l0.018-0.104h1.293c0.568,0,0.936-0.411,0.936-1.048v-5.15
	h0.881c0.553,0,1.002-0.483,1.002-1.077c0-0.789-0.767-0.851-1.002-0.851h-0.881v-2.325h4.023c0.582,0,1.002-0.409,1.002-0.973
	C111.97,77.399,111.55,76.981,110.968,76.981z M85.387,75.315h3.795v4.943h-6.556L85.387,75.315z M85.819,90.507
	c-0.958,0-1.602-0.666-1.602-1.658s0.644-1.659,1.602-1.659c0.958,0,1.601,0.667,1.601,1.659S86.776,90.507,85.819,90.507z
	 M88.953,87.437c-0.524-1.312-1.725-2.127-3.134-2.127c-1.322,0-2.455,0.719-3.029,1.923l-0.034,0.071h-0.781v-4.946h7.208l0,0.126
	c0,0.028-0.013,2.853,0.012,4.905l0.008,0.672L88.953,87.437z M101.359,90.507c-0.959,0-1.602-0.666-1.602-1.658
	s0.643-1.659,1.602-1.659c0.957,0,1.6,0.667,1.6,1.659S102.316,90.507,101.359,90.507z M100.18,74.665h4.93v2.316h-4.93
	c-0.554,0-0.988,0.458-0.988,1.042c0,0.639,0.497,0.925,0.988,0.925h4.93v2.325h-4.93c-0.575,0-0.992,0.413-0.992,0.981
	c0,0.558,0.408,0.946,0.992,0.946h4.93v4.229h-0.626l-0.032-0.075c-0.543-1.262-1.728-2.046-3.092-2.046
	c-1.365,0-2.551,0.784-3.093,2.046l-0.032,0.075h-7.287V70.507h14.156l0.117,2.205h-4.936c-0.549,0-1.051,0.503-1.051,1.055
	C99.234,74.304,99.615,74.665,100.18,74.665z"/>
</svg>
