<?xml version="1.0" encoding="utf-8"?>
<!-- Generator: Adobe Illustrator 16.0.0, SVG Export Plug-In . SVG Version: 6.00 Build 0)  -->
<!DOCTYPE svg PUBLIC "-//W3C//DTD SVG 1.1//EN" "http://www.w3.org/Graphics/SVG/1.1/DTD/svg11.dtd">
<svg version="1.1" id="图层_1" xmlns="http://www.w3.org/2000/svg" xmlns:xlink="http://www.w3.org/1999/xlink" x="0px" y="0px"
	 width="197.082px" height="154.746px" viewBox="0 0 197.082 154.746" enable-background="new 0 0 197.082 154.746"
	 xml:space="preserve">
<g>
	<path fill="#7E7E7E" d="M100.514,94.886c2.912-3.025,7.409-3.062,7.455-3.062c0.571,0,1.043-0.448,1.049-0.997
		c0.002-0.271-0.104-0.523-0.299-0.718c-0.197-0.19-0.459-0.299-0.736-0.304h-0.063c-0.551,0-5.474,0.105-8.945,3.71
		c-0.189,0.196-0.287,0.45-0.277,0.719c0.01,0.271,0.129,0.521,0.336,0.705C99.438,95.304,100.135,95.278,100.514,94.886z"/>
	<path fill="#7E7E7E" d="M84.331,89.812c-0.293,0.004-0.555,0.111-0.75,0.305c-0.195,0.191-0.301,0.445-0.299,0.711
		c0.004,0.553,0.477,1.002,1.055,1.002c0.045,0,4.629,0.035,7.424,3.045c0.367,0.398,1.064,0.438,1.482,0.08
		c0.209-0.18,0.332-0.428,0.348-0.697c0.014-0.268-0.08-0.524-0.264-0.725c-3.418-3.68-8.715-3.721-8.938-3.721
		C84.36,89.812,84.338,89.812,84.331,89.812z"/>
	<path fill="#7E7E7E" d="M95.155,95.14c0,0.48,0.443,0.871,0.986,0.871c0.521,0,0.979-0.439,0.979-0.938v-5.168l0.723-0.049
		c0.104,0,0.195-0.015,0.291-0.039c3.609-0.446,6.67-2.461,8.637-5.672c2.289-3.74,2.814-8.588,1.307-12.059
		c-0.145-0.332-0.479-0.553-0.856-0.561l-0.326-0.002c-0.242,0-0.485,0.016-0.722,0.031l-0.311,0.02l-0.031-0.092
		c-1.494-4.375-2.434-4.599-2.836-4.696c-0.074-0.019-0.178-0.043-0.332-0.043c-0.799,0-2.291,0.679-4.434,2.02l-0.084,0.052
		l-0.07-0.068c-0.449-0.438-0.883-0.801-1.324-1.111c-0.051-0.046-0.094-0.079-0.141-0.107c-0.268-0.167-0.615-0.195-0.906-0.073
		c-0.096,0.038-0.18,0.089-0.254,0.152c-0.46,0.322-0.919,0.717-1.457,1.247l-0.086,0.086l-0.088-0.085
		c-0.021-0.02-0.041-0.042-0.059-0.063c-0.027-0.03-0.051-0.057-0.078-0.074c-2.117-1.402-3.68-1.938-4.58-1.573
		c-0.803,0.325-1.854,1.742-3.127,4.213l-0.008,0.031c-0.006,0.025-0.012,0.051-0.021,0.076l-0.033,0.078l-0.084-0.002
		c-0.068,0-0.135-0.006-0.199-0.01c-0.076-0.004-0.152-0.01-0.229-0.01l-0.322,0.004c-0.375,0.006-0.711,0.225-0.855,0.557
		c-1.508,3.471-0.982,8.318,1.307,12.061c1.967,3.211,5.027,5.225,8.619,5.668c0.109,0.031,0.205,0.045,0.299,0.045l0.707,0.043
		v5.24H95.155z M99.705,70.418c1-0.604,2.014-1.144,2.586-1.373l0.1-0.04l0.055,0.092c0.312,0.526,0.771,1.563,1.166,2.645
		l0.049,0.133l-0.139,0.031c-0.893,0.203-1.68,0.455-2.404,0.77l-0.104,0.045l-0.055-0.098c-0.4-0.715-0.834-1.395-1.291-2.024
		l-0.08-0.109L99.705,70.418z M88.305,71.628c0.588-1.057,1.189-1.98,1.533-2.353l0.051-0.056l0.074,0.02
		c0.506,0.138,1.557,0.676,2.445,1.254l0.109,0.071l-0.076,0.107c-0.494,0.678-0.887,1.279-1.236,1.895l-0.057,0.098l-0.102-0.043
		c-0.828-0.352-1.723-0.623-2.658-0.809l-0.168-0.035L88.305,71.628z M94.639,88.042l-0.086-0.013
		c-3.93-0.422-6.186-2.846-7.385-4.805c-1.811-2.959-2.391-6.896-1.439-9.795l0.029-0.09l0.094,0.004
		c1.92,0.061,3.689,0.508,5.258,1.326c0.225,0.117,0.496,0.143,0.74,0.068c0.248-0.074,0.449-0.24,0.566-0.465
		c1.068-2.08,2.273-3.686,3.583-4.771l0.08-0.065l0.08,0.066c1.312,1.09,2.484,2.67,3.584,4.833c0.113,0.225,0.32,0.395,0.568,0.469
		c0.244,0.076,0.523,0.047,0.75-0.074c1.598-0.859,3.41-1.326,5.385-1.389l0.094-0.004l0.029,0.09
		c0.949,2.896,0.371,6.833-1.441,9.797c-1.196,1.959-3.45,4.383-7.387,4.805c-0.02,0.002-0.041,0.007-0.061,0.011L94.639,88.042z"/>
	<path fill="#7E7E7E" d="M96.25,55.773C82.879,55.773,72,66.651,72,80.023c0,13.371,10.879,24.25,24.25,24.25
		c5.103,0,8.705-1.002,12.441-3.455c0.207-0.137,0.41-0.281,0.613-0.426l0.113-0.08c0.022-0.021,0.754-0.652,0.233-1.506
		c-0.188-0.307-0.448-0.457-0.801-0.457c-0.521,0-1.029,0.332-1.035,0.336c-0.051,0.035-0.104,0.072-0.153,0.109
		c-0.068,0.047-0.138,0.096-0.207,0.143c-3.336,2.191-6.582,3.086-11.205,3.086c-12.131,0-22-9.869-22-22s9.869-22,22-22
		c12.133,0,22.002,9.869,22.002,22c0,5.053-1.67,9.805-4.826,13.742c0,0-0.686,1.078-0.145,1.582
		c0.264,0.246,0.551,0.371,0.854,0.371c0.479,0,0.836-0.305,0.84-0.31c3.559-4.313,5.527-9.784,5.527-15.387
		C120.501,66.651,109.623,55.773,96.25,55.773z"/>
</g>
</svg>
