<?xml version="1.0" encoding="utf-8"?>
<!-- Generator: Adobe Illustrator 16.0.0, SVG Export Plug-In . SVG Version: 6.00 Build 0)  -->
<!DOCTYPE svg PUBLIC "-//W3C//DTD SVG 1.1//EN" "http://www.w3.org/Graphics/SVG/1.1/DTD/svg11.dtd">
<svg version="1.1" id="图层_1" xmlns="http://www.w3.org/2000/svg" xmlns:xlink="http://www.w3.org/1999/xlink" x="0px" y="0px"
	 width="167.646px" height="172.793px" viewBox="0 0 167.646 172.793" enable-background="new 0 0 167.646 172.793"
	 xml:space="preserve">
<g>
	<path fill-rule="evenodd" clip-rule="evenodd" fill="#FFFFFF" d="M36.763,91.118v-8.546h-8.545v8.546H36.763L36.763,91.118z
		 M71.053,28.397h-45.73V74h45.715V28.397H71.053L71.053,28.397z M65.39,68.323H31.099V34.145h34.304v34.178H65.39L65.39,68.323z
		 M56.817,42.633H39.615v17.37h17.216v-17.37H56.817L56.817,42.633z M108.212,102.627h-8.548v8.516h25.676v-8.516h-8.514V94h-8.614
		V102.627L108.212,102.627z M88.255,54.129h-8.616v8.516h8.616V54.129L88.255,54.129z M39.615,131.379h17.216v-17.37H39.615V131.379
		L39.615,131.379z M88.212,96.907h8.615v-8.474h8.571v-8.699h-8.614v8.556h-8.572V96.907L88.212,96.907z M125.397,85.439h-8.613
		v8.515h8.613V85.439L125.397,85.439z M88.255,31.166h-8.616v17.173h8.616V31.166L88.255,31.166z M116.826,125.45v-8.517h-8.614
		v8.517H116.826L116.826,125.45z M25.323,145.418h45.715V99.816H25.323V145.418L25.323,145.418z M31.086,105.576H65.39v34.181
		H31.086V105.576L31.086,105.576z M131.075,111.087h8.615v-8.518h-8.615V111.087L131.075,111.087z M131.075,91.102h8.615v-8.347
		h-8.615V91.102L131.075,91.102z M96.812,28.397V74h45.717V28.397H96.812L96.812,28.397z M136.78,68.323h-34.304V34.145h34.304
		V68.323L136.78,68.323z M128.25,42.633h-17.216v17.37h17.216V42.633L128.25,42.633z M131.075,133.965h-5.679v-8.475h-8.613v8.475
		h-8.587v8.699h31.48v-8.39h0.014v-17.427h-8.615V133.965L131.075,133.965z M88.255,68.365h-8.645v8.516h8.645V68.365L88.255,68.365
		z M45.365,91.215h28.612v-8.644H45.365V91.215L45.365,91.215z M88.255,116.792h8.572v-8.334h-8.572V96.921h-8.616v45.546h8.573
		v0.114h8.615v-8.516h-8.572V116.792L88.255,116.792z M96.784,133.924h8.614v-8.519h-8.614V133.924L96.784,133.924z"/>
</g>
</svg>
