<?xml version="1.0" encoding="utf-8"?>
<!-- Generator: Adobe Illustrator 16.0.0, SVG Export Plug-In . SVG Version: 6.00 Build 0)  -->
<!DOCTYPE svg PUBLIC "-//W3C//DTD SVG 1.1//EN" "http://www.w3.org/Graphics/SVG/1.1/DTD/svg11.dtd">
<svg version="1.1" id="图层_1" xmlns="http://www.w3.org/2000/svg" xmlns:xlink="http://www.w3.org/1999/xlink" x="0px" y="0px"
	 width="167.647px" height="172.794px" viewBox="0 0 167.647 172.794" enable-background="new 0 0 167.647 172.794"
	 xml:space="preserve">
<g>
	<path fill-rule="evenodd" clip-rule="evenodd" fill="#FFFFFF" d="M49.409,129.433c-0.147,0-0.265-0.034-0.398-0.048
		c-0.182,0.021-0.31,0.03-0.31,0.03L49.409,129.433z"/>
	<path fill-rule="evenodd" clip-rule="evenodd" fill="#FFFFFF" d="M90.646,33.445c-28.169,0-51.479,19.819-51.479,44.583
		c0,9.583,3.413,19.165,10.961,27.442c0.101,0.098,0.222,0.139,0.327,0.223l-3.981,19.903h0.062
		c-0.091,0.638-0.089,1.264,0.116,1.806c0.492,1.312,1.231,1.874,2.361,1.983c0.462-0.051,1.347-0.197,1.918-0.604l10.961-5.518
		c5.452-2.033,10.97-3.413,15.76-2.033c4.064,0.727,8.204,1.38,12.995,1.38c28.169,0,51.478-19.899,51.478-44.582
		C142.124,53.337,118.821,33.445,90.646,33.445z M91.297,115.779c-4.136,0-7.549-0.72-11.688-1.38
		c-6.896-1.38-14.448-0.653-20.618,2.759l-5.597,2.783c1.377-4.452,3.221-10.173,4.173-12.078c1.637-3.273-2.386-6.888-2.386-6.888
		c-0.007-0.004-0.039,0.018-0.047,0.015c-0.081-0.1-0.119-0.218-0.213-0.312c-6.172-6.898-8.93-14.447-8.93-22.651
		c0-20.626,19.897-37.758,44.582-37.758c24.762,0,45.307,17.131,45.307,37.758C135.879,98.646,115.989,115.779,91.297,115.779z"/>
	<path fill-rule="evenodd" clip-rule="evenodd" fill="#FFFFFF" d="M67.704,71.813c-1.632,0-3.206,0.645-4.381,1.828
		c-1.108,1.112-1.829,2.743-1.829,4.382c0,1.567,0.652,3.206,1.829,4.38c1.112,1.176,2.749,1.767,4.381,1.767
		c1.641,0,3.205-0.653,4.382-1.767c1.11-1.181,1.831-2.748,1.831-4.38c0-1.639-0.655-3.205-1.831-4.382
		C70.909,72.465,69.336,71.813,67.704,71.813z"/>
	<path fill-rule="evenodd" clip-rule="evenodd" fill="#FFFFFF" d="M90.646,71.813c-1.639,0-3.206,0.645-4.382,1.828
		c-1.176,1.112-1.831,2.743-1.831,4.382c0,1.567,0.65,3.206,1.831,4.38c1.176,1.176,2.743,1.767,4.382,1.767
		c1.632,0,3.205-0.653,4.381-1.767c1.108-1.181,1.829-2.748,1.829-4.38c0-1.639-0.654-3.205-1.829-4.382
		C93.844,72.465,92.278,71.813,90.646,71.813z"/>
	<path fill-rule="evenodd" clip-rule="evenodd" fill="#FFFFFF" d="M113.446,71.813c-1.633,0-3.203,0.645-4.381,1.828
		c-1.043,1.112-1.764,2.743-1.764,4.382c0,1.567,0.654,3.206,1.764,4.38c1.178,1.176,2.748,1.767,4.381,1.767
		c1.639,0,3.205-0.653,4.383-1.767c1.107-1.181,1.83-2.748,1.83-4.38c0-1.639-0.654-3.205-1.83-4.382
		C116.651,72.465,115.079,71.813,113.446,71.813z"/>
</g>
</svg>
