<?xml version="1.0" encoding="utf-8"?>
<!-- Generator: Adobe Illustrator 16.0.0, SVG Export Plug-In . SVG Version: 6.00 Build 0)  -->
<!DOCTYPE svg PUBLIC "-//W3C//DTD SVG 1.1//EN" "http://www.w3.org/Graphics/SVG/1.1/DTD/svg11.dtd">
<svg version="1.1" id="图层_1" xmlns="http://www.w3.org/2000/svg" xmlns:xlink="http://www.w3.org/1999/xlink" x="0px" y="0px"
	 width="167.647px" height="172.794px" viewBox="0 0 167.647 172.794" enable-background="new 0 0 167.647 172.794"
	 xml:space="preserve">
<path fill-rule="evenodd" clip-rule="evenodd" fill="#FFFFFF" d="M126.631,79.26l-33.13-33.367c-0.806-0.812-1.858-1.198-2.905-1.19
	c-0.138-0.013-0.262-0.081-0.405-0.081c-0.591,0-1.141,0.137-1.644,0.363c-0.509,0.191-0.993,0.489-1.407,0.902L54.379,78.59
	c-1.583,1.577-1.585,4.14-0.004,5.716c0.786,0.798,1.823,1.189,2.86,1.189c1.036,0,2.065-0.392,2.86-1.177L86.15,58.305v71.219
	c0,2.229,1.812,4.041,4.041,4.041c2.233,0,4.042-1.812,4.042-4.041v-71.42l26.665,26.859c0.789,0.792,1.828,1.188,2.861,1.188
	c1.039,0,2.066-0.393,2.852-1.177C128.2,83.402,128.204,80.836,126.631,79.26L126.631,79.26L126.631,79.26 M127.086,36.536H53.38
	c-2.229,0-4.041-1.812-4.041-4.041c0-2.234,1.812-4.046,4.041-4.046h73.707c2.23,0,4.037,1.812,4.037,4.046
	C131.124,34.725,129.317,36.536,127.086,36.536L127.086,36.536L127.086,36.536 M127.086,36.536"/>
</svg>
