<?xml version="1.0" encoding="utf-8"?>
<!-- Generator: Adobe Illustrator 16.0.0, SVG Export Plug-In . SVG Version: 6.00 Build 0)  -->
<!DOCTYPE svg PUBLIC "-//W3C//DTD SVG 1.1//EN" "http://www.w3.org/Graphics/SVG/1.1/DTD/svg11.dtd">
<svg version="1.1" id="图层_1" xmlns="http://www.w3.org/2000/svg" xmlns:xlink="http://www.w3.org/1999/xlink" x="0px" y="0px"
	 width="595.279px" height="236.083px" viewBox="0 0 595.279 236.083" enable-background="new 0 0 595.279 236.083"
	 xml:space="preserve">
<g>
	<path fill="#FFFFFF" d="M121.464,125.95c0-4.416-0.694-5.279-3.13-6.574l-1.639-0.869c-0.52-0.174-0.687-0.265-0.687-0.613v-0.508
		c0-0.349,0.167-0.532,0.687-0.779l8.566-4.424c0.524-0.255,0.868-0.346,1.217-0.346c0.526,0,0.604,0.52,0.604,1.04l0.438,6.149
		h0.344c2.599-3.982,6.662-7.538,10.394-7.538c2.938,0,4.408,1.821,4.408,3.813c0,2.51-2.072,4.241-3.632,4.241
		c-0.951,0-1.815-0.346-2.511-0.688c-0.696-0.427-1.74-0.694-2.854-0.694c-1.387,0-3.635,0.866-5.117,3.637
		c-0.514,0.953-0.87,2.513-0.87,2.768v18.008c0,2.682,0.617,3.551,2.43,3.551h4.068c0.516,0,0.601,0.252,0.601,0.771v1.557
		c0,0.519-0.085,0.782-0.428,0.782c-0.517,0-4.502-0.265-9.173-0.265c-5.366,0-9.004,0.265-9.524,0.265
		c-0.343,0-0.517-0.172-0.517-0.862v-1.477c0-0.602,0.174-0.771,0.954-0.771h3.38c1.297,0,1.896-0.525,1.896-1.65
		c0.096-2.854,0.096-5.883,0.096-10.385V125.95z"/>
	<path fill="#FFFFFF" d="M158.16,144.038c-3.975-4.752-4.765-7.959-4.765-14.106c0-4.413,2.338-9.952,7.448-13.934
		c4.497-3.465,8.746-4.16,11.599-4.16c4.759,0,9.523,2.431,12.124,5.025c3.895,3.988,5.886,8.479,5.886,14.107
		c0,9.435-8.486,19.044-19.136,19.044C167.161,150.014,161.795,148.372,158.16,144.038 M183.179,130.1
		c0-9.605-7.012-15.659-11.423-15.659c-2.337,0-4.595,0.511-6.668,2.768c-3.372,3.461-4.595,7.012-4.595,13.588
		c0,4.847,0.529,8.135,3.295,12.119c1.992,2.854,4.504,4.502,8.569,4.502C178.935,147.418,183.179,139.368,183.179,130.1"/>
	<path fill="#FFFFFF" d="M207.76,147.504c-0.429-0.26-0.429-0.775-0.516-1.209l-1.471-8.223c-0.093-0.439,0.178-0.605,0.518-0.697
		l1.133-0.266c0.336-0.078,0.602,0.09,0.771,0.523l2.157,4.24c1.74,3.201,2.953,5.371,7.538,5.371c3.027,0,6.835-1.818,6.835-5.886
		c0-3.894-1.896-6.146-8.395-7.965c-5.101-1.476-10.209-4.159-10.209-10.991c0-5.972,5.622-10.567,12.119-10.567
		c4.16,0,6.405,1.04,7.96,1.815c1.295,0.607,1.47,1.046,1.56,1.563l1.301,6.059c0,0.347-0.18,0.604-0.603,0.774l-1.047,0.354
		c-0.344,0.087-0.521,0-0.772-0.437l-2.942-3.981c-1.047-1.647-2.688-3.381-6.065-3.381c-3.284,0-6.662,1.996-6.662,5.72
		c0,5.016,4.062,5.98,8.305,7.184c6.326,1.814,10.305,4.412,10.39,11.082c-0.084,7.008-5.795,11.422-13.15,11.422
		C212.26,150.014,208.804,148.286,207.76,147.504"/>
	<path fill="#FFFFFF" d="M251.564,125.95c-0.171,0.777-0.261,2.16-0.261,4.15c0,8.492,5.371,14.895,12.294,14.895
		c5.284,0,9.003-3.029,10.477-5.891c0.171-0.344,0.518-0.512,0.776-0.434l1.13,0.615c0.261,0.082,0.421,0.338,0,1.291
		c-1.563,3.461-6.064,9.438-13.772,9.438c-4.932,0-10.387-1.471-13.583-6.146c-3.031-4.418-3.808-7.615-3.808-13.672
		c0-3.381,0.864-9.176,5.452-13.763c3.715-3.813,8.049-4.592,12.374-4.592c9.957,0,12.727,9.348,12.727,12.726
		c0,1.215-1.036,1.383-2.424,1.383H251.564L251.564,125.95z M265.331,123.349c1.639,0,2.334-0.425,2.334-1.211
		c0-1.984-1.04-7.697-6.663-7.697c-3.802,0-7.442,2.506-9.089,8.908H265.331z"/>
	<path fill="#FFFFFF" d="M294.931,144.038c-3.981-4.752-4.761-7.959-4.761-14.106c0-4.413,2.341-9.952,7.448-13.934
		c4.498-3.465,8.739-4.16,11.602-4.16c4.755,0,9.516,2.431,12.119,5.025c3.896,3.988,5.889,8.479,5.889,14.107
		c0,9.435-8.492,19.044-19.138,19.044C303.935,150.014,298.568,148.372,294.931,144.038 M319.948,130.1
		c0-9.605-7.015-15.659-11.432-15.659c-2.325,0-4.583,0.511-6.661,2.768c-3.372,3.461-4.583,7.012-4.583,13.588
		c0,4.847,0.517,8.135,3.287,12.119c1.989,2.854,4.502,4.502,8.573,4.502C315.711,147.418,319.948,139.368,319.948,130.1"/>
	<path fill="#FFFFFF" d="M377.262,144.306c0,1.38,0.768,1.817,1.906,1.817h2.765c0.773,0,0.948,0.254,0.948,0.772v1.38
		c0,0.613-0.175,0.959-0.693,0.959c-0.604,0-3.291-0.253-8.22-0.253c-4.415,0-7.184,0.253-7.786,0.253
		c-0.522,0-0.696-0.253-0.696-0.959v-1.38c0-0.603,0.267-0.772,1.124-0.772h2.513c0.948,0,1.644-0.438,1.728-1.996
		c0.092-2.248,0.174-5.023,0.174-7.271v-11.434c0-3.453,0-5.959-2.51-7.784c-2.076-1.56-4.149-1.56-6.32-1.56
		c-1.375,0-4.411,0.61-7.006,3.383c-1.74,1.906-1.996,4.236-1.996,5.879v17.918c0,2.34,0.256,2.865,2.079,2.865h2.164
		c0.692,0,0.865,0.252,0.865,0.864v1.476c0,0.519-0.173,0.771-0.608,0.771c-0.604,0-2.936-0.253-7.529-0.253
		c-4.414,0-7.182,0.253-7.703,0.253c-0.435,0-0.602-0.253-0.602-0.771v-1.567c0-0.521,0.167-0.772,0.864-0.772h2.507
		c1.133,0,1.727-0.268,1.727-1.74v-20.248c0-2.602-1.38-4.069-3.548-5.108l-0.686-0.346c-0.603-0.253-0.697-0.52-0.697-0.779v-0.436
		c0-0.43,0.354-0.691,0.778-0.866l7.447-4.154c0.688-0.348,1.207-0.61,1.557-0.61c0.43,0,0.601,0.346,0.693,1.04l0.606,5.284h0.172
		c2.511-3.117,7.539-6.324,11.856-6.324c2.596,0,5.281,0.52,7.358,1.906c2.6,1.728,4.769,6.061,4.769,8.225V144.306L377.262,144.306
		z"/>
	<path fill="#FFFFFF" d="M407.729,123.178c0,4.505,0,17.574,0.093,20.257c0.08,1.474,0.429,2.688,2.245,2.688h3.897
		c0.774,0,0.944,0.254,0.944,0.772v1.476c0,0.519-0.17,0.863-0.515,0.863c-0.609,0-4.419-0.266-9.782-0.266
		c-5.547,0-9.004,0.266-9.777,0.266c-0.44,0-0.612-0.346-0.612-0.863v-1.476c0-0.603,0.172-0.772,1.133-0.772h4.151
		c0.95,0,1.812-0.615,1.901-2.17c0.088-2.684,0.088-17.57,0.088-22.586v-5.455c0-6.149-0.088-14.027-0.266-16.275
		c-0.162-2.945-1.553-4.325-4.322-5.199l-1.737-0.602c-0.43-0.177-0.509-0.255-0.509-0.43V92.71c0-0.264,0.254-0.427,0.775-0.598
		c3.023-1.395,6.931-2.957,10.127-5.028c0.777-0.523,1.299-0.694,1.812-0.694c0.604,0,0.777,0.441,0.692,1.562
		c-0.088,4.758-0.342,22.758-0.342,27.519v7.707H407.729z"/>
	<path fill="#FFFFFF" d="M424.952,168.106c0-1.82,1.91-3.378,3.983-3.378c1.642,0,3.198,0.784,3.979,0.959
		c0.607,0.081,1.306,0,1.821-0.522c1.296-1.562,5.714-11.434,6.928-14.806c-0.438-2.164-9.613-29.259-10.306-31.077
		c-1.04-2.161-1.814-3.634-4.065-3.634h-2.258c-0.601,0-0.686-0.252-0.686-0.778v-1.726c0-0.352,0.085-0.613,0.686-0.613
		c0.784,0,2.86,0.261,7.967,0.261c4.411,0,7.101-0.261,8.055-0.261c0.691,0,0.777,0.261,0.777,0.613v1.807
		c0,0.445-0.085,0.697-0.52,0.697h-1.64c-0.956,0-1.299,0.61-1.137,1.903c0.265,1.911,6.152,21.042,7.11,22.944h0.337
		c0.868-1.392,8.397-19.395,8.918-21.556c0.515-2.164-0.172-3.291-1.469-3.291h-1.387c-0.526,0-0.607-0.252-0.607-0.697v-1.725
		c0-0.433,0.081-0.694,0.521-0.694c1.119,0,2.94,0.261,7.102,0.261c2.327,0,4.328-0.261,5.281-0.261
		c0.511,0,0.511,0.346,0.511,0.694v1.644c0,0.526,0,0.778-0.427,0.778h-1.387c-0.956,0-2.161,0.438-3.029,1.56
		c-1.903,2.335-7.624,15.58-13.599,29.167c-4.239,9.604-7.612,17.651-9.174,20.517c-1.21,2.248-2.77,5.626-7.348,5.626
		C426.596,172.519,424.952,170.698,424.952,168.106"/>
	<path fill="#FFFFFF" d="M469.964,144.907c0-1.473,1.043-4.854,5.37-4.854c2.517,0,4.848,2.002,4.848,5.203
		c0,2.852-2.165,4.758-4.848,4.758C473.431,150.014,469.964,148.982,469.964,144.907"/>
</g>
</svg>
