<?xml version="1.0" encoding="utf-8"?>
<!-- Generator: Adobe Illustrator 16.0.0, SVG Export Plug-In . SVG Version: 6.00 Build 0)  -->
<!DOCTYPE svg PUBLIC "-//W3C//DTD SVG 1.1//EN" "http://www.w3.org/Graphics/SVG/1.1/DTD/svg11.dtd">
<svg version="1.1" id="图层_1" xmlns="http://www.w3.org/2000/svg" xmlns:xlink="http://www.w3.org/1999/xlink" x="0px" y="0px"
	 width="231.372px" height="111.766px" viewBox="0 0 231.372 111.766" enable-background="new 0 0 231.372 111.766"
	 xml:space="preserve">
<path fill="#FFFFFF" d="M31.763,34.609L31.763,34.609c0.003,0,0.027,0.015,0.083,0.03l0.692,0.209
	c1.272,0.392,1.846,1.07,1.92,2.261c0.063,0.89,0.139,3.867,0.139,6.366v10.935c0,1.147-0.695,1.451-1.063,1.451h-1.324
	c-0.224,0-0.288,0.021-0.304,0.03c0,0.003-0.002,0.021-0.002,0.062v0.659c0,0.168,0.039,0.168,0.093,0.168
	c0.071,0,0.202-0.008,0.4-0.017c0.622-0.029,1.922-0.087,3.933-0.087c1.828,0,3.174,0.058,3.819,0.087
	c0.22,0.009,0.369,0.017,0.437,0.017v0.186l0.001-0.186c0.003-0.006,0.033-0.054,0.033-0.168v-0.625
	c0-0.082-0.011-0.102-0.013-0.104c-0.002,0-0.042-0.023-0.222-0.023h-1.334c-0.943,0-1.023-0.685-1.091-1.288
	c-0.07-1.062-0.07-4.555-0.07-6.235v-5.026c0-2.035,0.07-9.226,0.139-11.088c0-0.431-0.108-0.431-0.162-0.431
	c-0.116,0-0.346,0.074-0.708,0.194c-1.222,0.766-4.327,1.747-5.244,2.033c-0.132,0.04-0.158,0.11-0.158,0.11l0.002,0.408
	C31.763,34.562,31.763,34.592,31.763,34.609"/>
<path fill="#FFFFFF" d="M54.739,42.054c-1.913,0-3.5,0.539-4.851,1.638c-2.112,1.699-2.862,4.106-2.862,5.655
	c0,2.021,0.295,3.462,1.84,5.294c1.395,1.675,3.15,2.456,5.517,2.456c2.295,0,4.33-0.872,5.731-2.457
	c1.354-1.479,2.132-3.371,2.132-5.186c0-2.034-0.775-3.796-2.367-5.39C58.937,43.149,57.279,42.054,54.739,42.054 M54.67,55.997
	c-1.334,0-2.236-0.49-2.918-1.582c-0.949-1.51-1.114-2.802-1.114-4.959c0-2.59,0.431-4.093,1.545-5.365
	c0.613-0.683,1.354-0.999,2.336-0.999c1.846,0,3.823,2.513,3.823,6.256C58.343,53.386,56.902,55.997,54.67,55.997"/>
<path fill="#FFFFFF" d="M82.68,42.332c-0.08,0-0.207,0.01-0.385,0.022c-0.452,0.032-1.209,0.087-2.348,0.087
	c-1.288,0-2.049-0.051-2.552-0.083c-0.229-0.016-0.394-0.026-0.523-0.026c-0.059,0-0.079,0.008-0.09,0.01
	c0.002,0.002-0.002,0.02-0.002,0.051v0.773c0,0.069,0.015,0.092,0.015,0.092l0.566-0.004c0.323,0,0.609,0.14,0.804,0.399
	c0.254,0.343,0.308,0.846,0.147,1.378c-0.484,1.614-2.538,6.582-3.019,7.705l-0.049,0.114h-0.451l-0.046-0.115
	c-0.15-0.365-1.646-4.256-1.752-4.546l-0.102-0.299c-0.543-1.616-1.099-3.332-1.099-3.849c0-0.462,0.393-0.787,0.956-0.787h0.561
	c0.064,0,0.092,0,0.092-0.157v-0.668c0-0.061-0.007-0.078-0.007-0.082c0-0.003,0.012-0.016-0.156-0.016
	c-0.127,0-0.297,0.01-0.535,0.024c-0.545,0.032-1.454,0.085-2.968,0.085c-2.07,0-2.953-0.056-3.426-0.088
	c-0.364-0.025-0.561-0.011-0.571,0c0.002,0-0.005,0.021-0.005,0.078v0.736c0,0.051,0.005,0.076,0.01,0.083h0.002
	c0.007,0,0.022,0.005,0.045,0.005h0.668c0.721,0,1.054,0.353,1.633,1.355c0.306,0.5,1.752,4.378,1.898,4.781
	c0.372,0.946,2.861,6.77,3.055,7.086c0.299,0.564,0.459,0.717,0.75,0.717c0.283,0,0.449-0.147,0.715-0.63
	c0.073-0.144,0.634-1.419,1.231-2.771c0.822-1.857,1.752-3.958,2.008-4.492l0.231-0.488c1.039-2.192,2.192-4.572,2.736-5.121
	c0.418-0.364,1.026-0.438,1.467-0.438h0.585c0.043,0,0.058-0.011,0.058-0.013c0,0,0.013-0.016,0.013-0.077V42.39
	c0-0.029-0.002-0.041-0.005-0.043C82.84,42.349,82.833,42.332,82.68,42.332"/>
<path fill="#FFFFFF" d="M98.394,53.025l-0.52-0.298c-0.031-0.017-0.051-0.021-0.056-0.021c-0.02,0-0.059,0.039-0.104,0.123
	c-0.643,0.976-1.913,2.123-4.39,2.123c-1.981,0-4.729-2.032-4.729-5.845v-1.265h8.633c0.717,0,0.788-0.072,0.788-0.383
	c0-1.38-1.25-5.404-5.081-5.404c-2.939,0-4.492,0.658-5.938,2.516c-1.422,1.86-1.663,3.063-1.663,5.056
	c0,2.06,0.325,3.811,1.909,5.638c1.117,1.285,2.578,1.833,4.886,1.833c3.459,0,5.282-1.965,6.205-3.611
	C98.535,53.119,98.467,53.073,98.394,53.025 M88.702,46.727c0.472-2.484,1.614-3.748,3.401-3.748c1.733,0,2.349,1.776,2.349,3.296
	c0,0.324-0.353,0.672-1.342,0.672h-4.449L88.702,46.727z"/>
<path fill="#FFFFFF" d="M41.049,66.94c-1.408,0-2.844,1.083-4.042,3.052l-0.051,0.087h-0.402l-0.341-2.742
	c-0.024-0.172-0.066-0.262-0.124-0.262c-0.139,0-0.239,0.043-0.388,0.099l-0.102,0.04l-4.22,1.975
	c-0.173,0.089-0.173,0.108-0.173,0.149v0.217c0.004,0.021,0.027,0.051,0.155,0.095l0.662,0.365c1.114,0.593,1.421,1.212,1.421,2.886
	v6.852c0,0.725-0.389,1.126-1.089,1.126h-1.233c-0.08,0-0.112,0.01-0.123,0.01c0.002,0.007-0.005,0.026-0.005,0.085v0.763
	c0,0.033,0.005,0.054,0.007,0.062c0.01,0,0.02,0.002,0.057,0.002c0.067,0,0.204-0.005,0.407-0.017c0.604-0.029,1.85-0.09,3.681-0.09
	c1.954,0,3.308,0.062,3.958,0.092c0.279,0.013,0.392,0.02,0.423,0.013c-0.001-0.008,0.001-0.027,0.001-0.062V80.94
	c0-0.027-0.002-0.05-0.004-0.058c-0.005-0.003-0.029-0.003-0.08-0.003h-1.541c-0.964,0-1.162-0.663-1.162-1.657v-6.674
	c0-0.492,0.156-1.285,0.441-1.799c0.476-0.818,1.177-1.108,1.63-1.108c0.453,0,0.82,0.11,1.096,0.324
	c0.163,0.073,0.564,0.234,1.07,0.234c0.843,0,1.702-0.856,1.702-1.699C42.678,67.584,42.009,66.94,41.049,66.94"/>
<path fill="#FFFFFF" d="M54.739,67.076c-1.91,0-3.497,0.539-4.851,1.647c-2.112,1.688-2.862,4.099-2.862,5.646
	c0,2.03,0.296,3.471,1.849,5.294c1.386,1.675,3.134,2.453,5.508,2.453c2.292,0,4.327-0.873,5.731-2.456
	c1.374-1.508,2.132-3.35,2.132-5.188c0-2.034-0.775-3.796-2.367-5.389C58.937,68.17,57.279,67.076,54.739,67.076 M54.67,81.02
	c-1.329,0-2.229-0.489-2.916-1.587c-0.951-1.51-1.115-2.8-1.115-4.961c0-2.592,0.432-4.095,1.545-5.363
	c0.625-0.688,1.369-1.006,2.336-1.006c1.849,0,3.828,2.517,3.828,6.266C58.348,78.411,56.904,81.02,54.67,81.02"/>
<path fill="#FFFFFF" d="M74.264,72.837c-2.047-0.544-3.292-0.988-3.292-2.59c0-1.243,1.12-2.18,2.604-2.18
	c1.28,0,1.965,0.745,2.336,1.146l1.71,1.928c0.014,0.036,0.029,0.048,0.034,0.048l0.604-0.279c0.008-0.032,0.013-0.109-0.009-0.199
	l-0.462-2.387c-0.02-0.126-0.074-0.232-0.569-0.505c-0.911-0.498-1.997-0.743-3.308-0.743c-1.372,0-2.323,0.305-3.524,1.12
	c-1.125,0.808-1.696,1.99-1.696,3.513c0,2.035,1.311,3.368,4.124,4.189c2.311,0.667,3.486,1.296,3.486,2.904
	c0,1.347-1.118,2.323-2.663,2.323c-1.831,0-2.54-0.938-3.157-1.984l-1.194-1.987c-0.022,0-0.058,0.005-0.082,0.011l-0.645,0.209
	c0.013,0,0.013,0.02,0.02,0.056l0.556,3.544c0.025,0.073,0.11,0.163,0.234,0.286c0.353,0.282,1.848,0.854,3.647,0.854
	c3.32,0,5.639-1.993,5.639-4.842c0-1.188-0.287-1.961-0.99-2.67C76.75,73.625,75.765,73.226,74.264,72.837"/>
<path fill="#FFFFFF" d="M98.396,78.054l-0.522-0.309c-0.026-0.011-0.046-0.017-0.053-0.017c-0.026,0-0.071,0.049-0.11,0.121
	c-0.639,0.977-1.91,2.119-4.386,2.119c-1.981,0-4.729-2.027-4.729-5.838v-1.27h8.633c0.711,0,0.788-0.077,0.788-0.377
	c0-1.383-1.25-5.407-5.081-5.407c-2.936,0-4.489,0.66-5.938,2.521c-1.422,1.858-1.663,3.062-1.663,5.054
	c0,2.061,0.322,3.811,1.906,5.641c1.115,1.278,2.575,1.823,4.889,1.823c3.471,0,5.289-1.966,6.205-3.614
	C98.532,78.141,98.467,78.098,98.396,78.054 M88.702,71.749c0.472-2.489,1.614-3.751,3.401-3.751c1.733,0,2.349,1.775,2.349,3.301
	c0,0.324-0.353,0.671-1.342,0.671h-4.449L88.702,71.749z"/>
<path fill="#FFFFFF" d="M111.121,67.076c-1.908,0-3.49,0.539-4.836,1.647c-2.117,1.684-2.866,4.094-2.866,5.646
	c0,2.033,0.293,3.476,1.841,5.294c1.387,1.675,3.137,2.453,5.513,2.453c2.285,0,4.324-0.873,5.741-2.456
	c1.361-1.508,2.112-3.354,2.112-5.188c0-2.037-0.771-3.801-2.358-5.389C115.324,68.17,113.661,67.076,111.121,67.076 M111.049,81.02
	c-1.321,0-2.219-0.489-2.911-1.587c-0.938-1.5-1.107-2.797-1.107-4.961c0-2.609,0.436-4.112,1.549-5.363
	c0.617-0.688,1.361-1.006,2.343-1.006c1.841,0,3.813,2.517,3.813,6.266C114.737,78.411,113.291,81.02,111.049,81.02"/>
<path fill="#FFFFFF" d="M140.716,80.88c-0.311,0-1.032-0.114-1.032-1.164c0-0.307,0.009-0.781,0.021-1.308
	c0.013-0.666,0.025-1.424,0.025-2.048v-5.026c0-1.3-0.309-2.336-1.847-3.458c-0.652-0.534-1.647-0.802-2.96-0.802
	c-0.907,0-1.767,0.258-2.704,0.812c-0.605,0.304-1.222,0.802-1.709,1.363l-0.054,0.068h-0.45l-0.306-1.978
	c-0.068-0.267-0.182-0.267-0.232-0.267c-0.115,0-0.257,0.076-0.425,0.166c-0.063,0.032-0.13,0.065-0.194,0.098l-3.843,1.824
	c-0.169,0.05-0.243,0.132-0.243,0.176v0.286c0,0.033,0,0.111,0.159,0.167l0.297,0.151c0.729,0.362,1.564,0.938,1.564,2.191v7.859
	c0,0.554-0.408,0.885-1.094,0.885h-0.691c-0.122,0-0.158,0.015-0.166,0.021c0,0.003-0.004,0.022-0.004,0.075v0.664
	c0,0.113,0.025,0.159,0.032,0.166c0.046-0.003,0.146-0.01,0.291-0.017c0.497-0.029,1.539-0.093,3.189-0.093
	c1.606,0,2.552,0.063,3.01,0.093c0.137,0.007,0.231,0.014,0.277,0.014c0.055,0,0.095,0,0.095-0.163v-0.631
	c0-0.091-0.011-0.109-0.014-0.115c-0.004,0-0.038-0.013-0.154-0.013h-0.623c-0.849,0-0.849-1.031-0.849-1.371v-7.202
	c0-0.829,0.132-1.956,0.78-2.611c0.702-0.639,1.5-0.962,2.377-0.962c0.787,0,1.466,0,2.218,0.687c0.906,0.747,0.97,1.726,0.97,3.127
	v4.023c0,1.404-0.041,2.394-0.141,3.306c-0.109,0.931-0.646,1.004-0.809,1.004h-0.704c-0.168,0-0.217,0.019-0.229,0.025
	c0.004,0.003-0.002,0.022-0.002,0.07v0.601c0,0.226,0.041,0.226,0.092,0.226c0.047,0,0.146-0.007,0.3-0.014
	c0.492-0.029,1.53-0.093,3.127-0.093c1.829,0,2.897,0.061,3.413,0.09c0.32,0.017,0.425,0.013,0.444,0.008
	c0-0.005,0.005-0.021,0.005-0.054V80.94c-0.005-0.032-0.044-0.061-0.23-0.061H140.716z"/>
<path fill="#FFFFFF" d="M154.97,80.88h-1.324c-0.946,0-1.025-0.684-1.101-1.279c-0.064-1.064-0.064-4.566-0.064-6.246v-5.033
	c0-1.867,0.064-9.182,0.141-11.077c0-0.44-0.111-0.44-0.166-0.44c-0.094,0-0.281,0.064-0.571,0.153l-0.128,0.044
	c-1.31,0.814-4.602,1.838-5.25,2.036c-0.11,0.035-0.154,0.099-0.162,0.114l0.004,0.407c0,0.027,0,0.054,0.002,0.068l0,0
	c0.007,0,0.028,0.012,0.081,0.028l0.691,0.209c1.28,0.399,1.852,1.078,1.914,2.267c0.075,0.915,0.142,3.951,0.142,6.369v10.933
	c0,1.14-0.663,1.446-1.059,1.446h-1.329c-0.225,0-0.282,0.023-0.296,0.029c0.002,0-0.002,0.022-0.002,0.065v0.664
	c0,0.163,0.038,0.163,0.095,0.163c0.069,0,0.195-0.007,0.397-0.014c0.622-0.029,1.918-0.093,3.93-0.093
	c1.828,0,3.173,0.061,3.816,0.09c0.224,0.01,0.374,0.017,0.442,0.017v0.185l0.002-0.185c0.003-0.004,0.026-0.053,0.026-0.163v-0.631
	c0-0.083-0.01-0.103-0.012-0.104C155.192,80.903,155.151,80.88,154.97,80.88"/>
<path fill="#FFFFFF" d="M163.127,88.232c-0.235,0.243-0.752,0.286-1.115,0.106c-0.297-0.15-0.872-0.398-1.453-0.398
	c-0.821,0-1.49,0.7-1.49,1.564c0,1.012,0.769,1.698,1.911,1.698c1.635,0,2.311-1.114,2.852-2.003l0.138-0.222
	c0.44-0.795,1.325-2.723,2.454-5.171c0.431-0.934,0.895-1.938,1.376-2.98c2.545-5.73,4.888-10.953,5.609-11.884
	c0.479-0.603,1.14-0.667,1.4-0.667h0.424c0.027,0.016,0.025-0.018,0.025-0.092v-0.733c0-0.062-0.014-0.081-0.014-0.084
	c-0.003,0-0.012-0.007-0.049-0.007c-0.104,0-0.27,0.013-0.485,0.027c-0.429,0.028-1.073,0.072-1.863,0.072
	c-1.282,0-2.009-0.047-2.487-0.075c-0.217-0.014-0.373-0.025-0.507-0.025c-0.064,0-0.081,0.013-0.081,0.013
	s-0.015,0.021-0.015,0.078v0.77c0.008,0.043,0.025,0.054,0.096,0.054h0.556c0.427,0,0.658,0.175,0.775,0.32
	c0.216,0.271,0.262,0.688,0.138,1.237c-0.18,0.771-2.634,6.764-3.257,8.077l-0.051,0.104h-0.379l-0.049-0.109
	c-0.38-0.831-2.46-7.999-2.569-8.678c-0.07-0.362,0.032-0.586,0.132-0.706c0.13-0.16,0.337-0.246,0.583-0.246h0.515
	c0.036,0,0.054-0.007,0.056-0.007c0,0,0.008-0.014,0.008-0.048v-0.768c0-0.053-0.005-0.078-0.01-0.086
	c-0.01,0-0.031-0.005-0.082-0.005c-0.131,0-0.32,0.012-0.583,0.026c-0.569,0.026-1.52,0.074-2.912,0.074
	c-1.952,0-2.922-0.057-3.386-0.084c-0.305-0.018-0.406,0-0.406,0l-0.006,0.81c0,0.062,0.011,0.079,0.014,0.079
	c0,0,0.016,0.013,0.079,0.013h0.697c0.859,0,1.253,0.75,1.61,1.581c0.247,0.609,4.292,11.531,4.514,12.612l0.009,0.048l-0.014,0.045
	C165.425,83.867,163.601,87.769,163.127,88.232"/>
<path fill="#FFFFFF" d="M189.772,7.91c-2.287-1.119-4.799-1.719-7.469-1.783c-12.447-0.295-26.745,13.146-35.785,30.042
	c-5.309-8.477-12.697-16.149-19.437-16.307c-1.803-0.043-3.509,0.295-5.069,1.006c-8.691,3.959-10.591,18.539-4.23,32.5
	c1.667,3.657,3.77,6.99,6.247,9.9l0.76-0.605c-1.664-2.235-3.113-4.692-4.301-7.303c-2.817-6.181-3.981-12.661-3.283-18.246
	c0.691-5.498,3.104-9.45,6.806-11.136c1.337-0.609,2.807-0.903,4.361-0.863c6.118,0.143,13.166,7.746,17.957,15.735l0.447,0.749
	l0.399-0.771c8.337-16.013,20.786-28.931,32.339-28.656c2.38,0.055,4.618,0.591,6.649,1.585c5.951,2.912,9.682,9.506,10.502,18.563
	c0.826,9.145-1.407,19.683-6.298,29.671c-5.972,12.197-19.411,29.046-31.124,41.597l1.3,0.235l0.045-0.037
	c11.959-10.729,26.808-28.455,34.104-43.358C205.602,38.137,203.393,14.578,189.772,7.91"/>
</svg>
