<?xml version="1.0" encoding="utf-8"?>
<!-- Generator: Adobe Illustrator 16.0.0, SVG Export Plug-In . SVG Version: 6.00 Build 0)  -->
<!DOCTYPE svg PUBLIC "-//W3C//DTD SVG 1.1//EN" "http://www.w3.org/Graphics/SVG/1.1/DTD/svg11.dtd">
<svg version="1.1" id="图层_1" xmlns="http://www.w3.org/2000/svg" xmlns:xlink="http://www.w3.org/1999/xlink" x="0px" y="0px"
	 width="28.346px" height="28.347px" viewBox="0 0 28.346 28.347" enable-background="new 0 0 28.346 28.347" xml:space="preserve">
<g>
	<g>
		<defs>
			<rect id="SVGID_1_" width="28.309" height="28.347"/>
		</defs>
		<clipPath id="SVGID_2_">
			<use xlink:href="#SVGID_1_"  overflow="visible"/>
		</clipPath>
		<path clip-path="url(#SVGID_2_)" fill="#D12F1A" d="M0,14.153c0,7.817,6.338,14.153,14.155,14.153S28.31,21.971,28.31,14.153
			S21.973-0.002,14.155-0.002S0,6.336,0,14.153L0,14.153z M0,14.153"/>
	</g>
	<path fill="#F5D522" d="M9.445,7.198l1.365,4.026h4.415l-3.575,2.618l1.323,3.994L9.45,15.463l-3.526,2.374l1.324-3.994
		l-3.549-2.618h4.414L9.445,7.198z M23.612,15.229l0.44,1.303h1.434l-1.162,0.851l0.43,1.292l-1.142-0.765l-1.141,0.765l0.428-1.292
		l-1.147-0.851h1.428L23.612,15.229L23.612,15.229z M22.652,9.281l0.978,0.971l1.28-0.631l-0.663,1.272l0.96,0.972l-1.362-0.185
		l-0.684,1.194l-0.188-1.347l-1.41-0.252l1.284-0.633L22.652,9.281z M17.984,5.87l1.3,0.469l0.891-1.117l-0.058,1.437l1.275,0.474
		l-1.312,0.41l-0.114,1.369l-0.743-1.141l-1.382,0.37l0.896-1.116L17.984,5.87L17.984,5.87z M17.984,20.036l1.3,0.473l0.891-1.118
		l-0.058,1.438l1.275,0.473l-1.312,0.41l-0.114,1.374l-0.743-1.145l-1.382,0.366l0.896-1.119L17.984,20.036L17.984,20.036z
		 M17.984,20.036"/>
</g>
</svg>
