<?xml version="1.0" encoding="utf-8"?>
<!-- Generator: Adobe Illustrator 16.0.0, SVG Export Plug-In . SVG Version: 6.00 Build 0)  -->
<!DOCTYPE svg PUBLIC "-//W3C//DTD SVG 1.1//EN" "http://www.w3.org/Graphics/SVG/1.1/DTD/svg11.dtd">
<svg version="1.1" id="图层_1" xmlns="http://www.w3.org/2000/svg" xmlns:xlink="http://www.w3.org/1999/xlink" x="0px" y="0px"
	 width="28.346px" height="28.347px" viewBox="0 0 28.346 28.347" enable-background="new 0 0 28.346 28.347" xml:space="preserve">
<g>
	<g>
		<defs>
			<rect id="SVGID_1_" x="0.005" width="28.342" height="28.347"/>
		</defs>
		<clipPath id="SVGID_2_">
			<use xlink:href="#SVGID_1_"  overflow="visible"/>
		</clipPath>
		<path clip-path="url(#SVGID_2_)" fill="#D12F1A" d="M9.166,13.718l0.3-0.393l0.494,0.022L9.679,12.94l0.179-0.462L9.38,12.622
			l-0.385-0.312l-0.011,0.494l-0.413,0.269l0.465,0.167L9.166,13.718z M13.629,9.908l0.3-0.395l0.496,0.025l-0.283-0.407
			l0.174-0.463l-0.471,0.142l-0.385-0.31l-0.013,0.494l-0.415,0.269L13.5,9.432L13.629,9.908z M12.132,17.908l-0.472,0.141
			l-0.388-0.306l-0.011,0.494l-0.41,0.273l0.468,0.162l0.134,0.475l0.297-0.395l0.493,0.022l-0.283-0.404L12.132,17.908z
			 M17.979,17.429l-0.473,0.144l-0.388-0.309L17.11,17.76l-0.412,0.271l0.465,0.161l0.134,0.479l0.297-0.396l0.497,0.022
			l-0.283-0.404L17.979,17.429z M17.979,17.429"/>
		<path clip-path="url(#SVGID_2_)" fill="#D12F1A" d="M14.174,0C6.344,0,0,6.346,0,14.174s6.344,14.173,14.174,14.173
			c7.828,0,14.173-6.345,14.173-14.173S22.002,0,14.174,0L14.174,0z M13.963,6.287c0.751-0.351,1.529-0.462,2.262-0.37
			c-0.042,0.017-0.084,0.026-0.124,0.042c-0.692,0.322-0.997,1.141-0.677,1.825c0.053,0.108,0.173,0.283,0.253,0.472
			c0.452,1.083-0.016,2.335-1.076,2.854c-0.013,0.006-0.111,0.061-0.144,0.086c-0.835,0.434-1.191,1.449-0.79,2.309
			c0.06,0.134,0.14,0.253,0.228,0.36c-0.312-0.248-0.619-0.637-0.811-1.042c-0.462-0.993-0.262-2.37,0.217-3.028l-0.115-0.082
			c-0.504,0.692-0.713,2.133-0.229,3.175c0.207,0.445,0.541,0.851,0.889,1.111c-0.913-0.402-1.69-1.117-2.146-2.094
			C10.711,9.774,11.835,7.277,13.963,6.287L13.963,6.287z M6.978,9.642c0,0.04-0.003,0.085,0.004,0.126
			c0.094,0.763,0.774,1.304,1.523,1.214c0.117-0.014,0.32-0.075,0.524-0.092c1.168-0.093,2.214,0.742,2.38,1.912
			c0,0.015,0.018,0.124,0.034,0.156c0.153,0.932,1.007,1.588,1.948,1.474c0.143-0.019,0.275-0.055,0.405-0.103
			c-0.334,0.217-0.79,0.386-1.232,0.44c-1.089,0.13-2.33-0.492-2.812-1.149l-0.114,0.081c0.504,0.692,1.806,1.344,2.942,1.207
			c0.488-0.057,0.972-0.248,1.329-0.493c-0.667,0.738-1.589,1.256-2.653,1.382C8.928,16.075,6.9,14.23,6.624,11.901
			C6.526,11.081,6.663,10.31,6.978,9.642L6.978,9.642z M14.864,17.415c-0.439,2.304-2.81,3.672-5.115,3.236
			c-0.816-0.155-1.514-0.521-2.051-1.021c0.041,0.012,0.08,0.028,0.124,0.037c0.752,0.145,1.475-0.344,1.615-1.085
			c0.022-0.118,0.022-0.332,0.069-0.53c0.265-1.143,1.38-1.885,2.542-1.688c0.016,0.003,0.125,0.016,0.166,0.016
			c0.93,0.138,1.812-0.477,1.991-1.409c0.024-0.137,0.03-0.275,0.024-0.408c0.102,0.381,0.127,0.865,0.045,1.299
			c-0.203,1.076-1.173,2.077-1.947,2.335l0.045,0.133c0.812-0.27,1.83-1.314,2.042-2.442c0.093-0.484,0.055-1.006-0.072-1.42
			C14.852,15.32,15.064,16.357,14.864,17.415L14.864,17.415z M18.988,20.384c-0.401,0.726-0.962,1.274-1.611,1.635
			c0.021-0.035,0.052-0.067,0.074-0.105c0.368-0.668,0.13-1.51-0.529-1.874c-0.106-0.057-0.306-0.127-0.481-0.23
			c-1.003-0.609-1.365-1.9-0.818-2.941c0.007-0.013,0.055-0.113,0.067-0.149c0.421-0.844,0.108-1.872-0.723-2.335
			c-0.124-0.066-0.253-0.114-0.382-0.152c0.397,0.02,0.865,0.146,1.25,0.359c0.96,0.529,1.609,1.762,1.612,2.578h0.14
			c-0.003-0.857-0.682-2.145-1.685-2.698c-0.433-0.239-0.943-0.368-1.376-0.373c0.975-0.217,2.028-0.099,2.972,0.42
			C19.556,15.648,20.12,18.326,18.988,20.384L18.988,20.384z M22.576,13.438c-0.523-0.557-1.396-0.589-1.944-0.073
			c-0.086,0.083-0.212,0.252-0.369,0.388c-0.885,0.768-2.226,0.715-3.046-0.129c-0.012-0.011-0.095-0.087-0.126-0.109
			c-0.673-0.659-1.75-0.682-2.443-0.031c-0.104,0.099-0.19,0.207-0.265,0.324c0.14-0.375,0.408-0.786,0.733-1.088
			c0.8-0.75,2.168-0.989,2.947-0.74l0.04-0.137c-0.815-0.261-2.25-0.013-3.087,0.771c-0.354,0.33-0.631,0.767-0.777,1.172
			c0.1-0.983,0.539-1.943,1.32-2.676c1.71-1.605,4.433-1.315,6.038,0.395c0.566,0.604,0.916,1.31,1.058,2.035
			C22.626,13.504,22.607,13.469,22.576,13.438L22.576,13.438z M22.576,13.438"/>
	</g>
	<path fill="#D12F1A" d="M19.339,11.717l-0.475,0.145l-0.389-0.311l-0.006,0.494l-0.415,0.271l0.465,0.166l0.135,0.475l0.3-0.392
		l0.493,0.023l-0.283-0.409L19.339,11.717z M19.339,11.717"/>
	<path fill="#FFFFFF" d="M15.56,11.109c-0.781,0.732-1.217,1.688-1.32,2.676c0.146-0.405,0.424-0.842,0.777-1.172
		c0.837-0.784,2.271-1.032,3.087-0.771l-0.04,0.137c-0.779-0.249-2.147-0.01-2.947,0.74c-0.325,0.302-0.594,0.713-0.733,1.088
		c0.074-0.114,0.163-0.226,0.265-0.324c0.693-0.65,1.771-0.628,2.443,0.031c0.035,0.022,0.114,0.099,0.126,0.109
		c0.82,0.844,2.161,0.894,3.046,0.129c0.152-0.132,0.281-0.305,0.369-0.388c0.551-0.516,1.421-0.483,1.944,0.073
		c0.028,0.031,0.05,0.066,0.079,0.104c-0.142-0.726-0.491-1.431-1.058-2.035C19.992,9.794,17.27,9.504,15.56,11.109L15.56,11.109z
		 M18.954,12.564l-0.3,0.394l-0.131-0.474l-0.469-0.165l0.415-0.27l0.01-0.496l0.388,0.311l0.477-0.144l-0.176,0.461l0.282,0.409
		L18.954,12.564z M14.415,15.884c-0.212,1.127-1.229,2.173-2.042,2.442l-0.045-0.134c0.774-0.258,1.744-1.255,1.947-2.334
		c0.082-0.435,0.057-0.918-0.045-1.3c0.006,0.134,0,0.271-0.024,0.407c-0.18,0.934-1.062,1.549-1.991,1.411
		c-0.041,0.003-0.15-0.013-0.166-0.016c-1.162-0.197-2.274,0.548-2.542,1.688c-0.044,0.201-0.044,0.412-0.069,0.529
		c-0.141,0.742-0.866,1.23-1.615,1.085c-0.041-0.009-0.083-0.024-0.124-0.038c0.541,0.504,1.234,0.868,2.051,1.024
		c2.306,0.438,4.676-0.931,5.115-3.234c0.2-1.058-0.013-2.095-0.519-2.951C14.47,14.873,14.508,15.396,14.415,15.884L14.415,15.884z
		 M11.75,18.753l-0.3,0.395l-0.134-0.477l-0.468-0.163l0.411-0.273l0.009-0.494l0.389,0.306l0.472-0.144l-0.173,0.463l0.284,0.403
		L11.75,18.753z M11.75,18.753"/>
	<path fill="#FFFFFF" d="M17.502,14.514c-0.943-0.519-1.995-0.64-2.972-0.42c0.433,0.005,0.943,0.133,1.376,0.373
		c1.002,0.554,1.681,1.844,1.685,2.696h-0.14c-0.004-0.814-0.653-2.044-1.612-2.575c-0.389-0.214-0.856-0.34-1.251-0.361
		c0.131,0.035,0.258,0.083,0.382,0.154c0.831,0.458,1.144,1.49,0.723,2.334c-0.01,0.039-0.058,0.137-0.067,0.149
		c-0.547,1.041-0.188,2.331,0.818,2.939c0.177,0.105,0.377,0.173,0.481,0.232c0.659,0.364,0.897,1.206,0.529,1.874
		c-0.021,0.037-0.052,0.07-0.073,0.104c0.646-0.359,1.21-0.908,1.61-1.634C20.12,18.326,19.556,15.648,17.502,14.514L17.502,14.514z
		 M17.594,18.275l-0.3,0.396l-0.131-0.479l-0.468-0.161l0.412-0.275l0.008-0.492l0.387,0.309l0.475-0.144L17.8,17.894l0.284,0.407
		L17.594,18.275z M11.256,15.804c1.064-0.127,1.986-0.643,2.653-1.382c-0.357,0.246-0.841,0.433-1.329,0.493
		c-1.141,0.138-2.441-0.517-2.942-1.207l0.114-0.083c0.482,0.663,1.724,1.28,2.812,1.15c0.442-0.054,0.898-0.223,1.232-0.44
		c-0.127,0.048-0.26,0.083-0.405,0.103c-0.945,0.112-1.795-0.542-1.948-1.471c-0.013-0.039-0.031-0.146-0.034-0.16
		c-0.166-1.169-1.212-2.004-2.38-1.911c-0.204,0.016-0.407,0.081-0.524,0.093c-0.749,0.089-1.43-0.452-1.523-1.214
		C6.975,9.733,6.978,9.688,6.978,9.646c-0.317,0.67-0.454,1.439-0.356,2.267C6.9,14.236,8.928,16.081,11.256,15.804L11.256,15.804z
		 M8.984,12.805l0.014-0.494l0.384,0.312l0.476-0.141l-0.176,0.462l0.278,0.408l-0.494-0.023l-0.3,0.393l-0.127-0.478L8.571,13.08
		L8.984,12.805z M8.984,12.805"/>
	<path fill="#FFFFFF" d="M13.848,13.995c-0.343-0.261-0.682-0.667-0.889-1.111c-0.483-1.039-0.27-2.481,0.229-3.176l0.115,0.083
		c-0.478,0.658-0.682,2.035-0.217,3.029c0.188,0.404,0.496,0.789,0.812,1.041c-0.09-0.109-0.17-0.227-0.229-0.36
		c-0.4-0.859-0.045-1.876,0.791-2.309c0.03-0.025,0.127-0.079,0.143-0.086c1.058-0.521,1.528-1.771,1.076-2.855
		c-0.08-0.187-0.2-0.361-0.252-0.47c-0.318-0.686-0.016-1.5,0.676-1.825c0.041-0.02,0.082-0.027,0.123-0.041
		c-0.731-0.093-1.508,0.019-2.261,0.369c-2.128,0.989-3.25,3.487-2.26,5.611C12.156,12.876,12.935,13.594,13.848,13.995
		L13.848,13.995z M13.447,8.995l0.01-0.494l0.385,0.31l0.471-0.142l-0.174,0.463l0.283,0.407l-0.493-0.022l-0.3,0.396L13.5,9.435
		l-0.468-0.166L13.447,8.995z M13.447,8.995"/>
</g>
</svg>
