<?xml version="1.0" encoding="utf-8"?>
<!-- Generator: Adobe Illustrator 16.0.0, SVG Export Plug-In . SVG Version: 6.00 Build 0)  -->
<!DOCTYPE svg PUBLIC "-//W3C//DTD SVG 1.1//EN" "http://www.w3.org/Graphics/SVG/1.1/DTD/svg11.dtd">
<svg version="1.1" id="图层_1" xmlns="http://www.w3.org/2000/svg" xmlns:xlink="http://www.w3.org/1999/xlink" x="0px" y="0px"
	 width="128px" height="35px" viewBox="0 0 128 35" enable-background="new 0 0 128 35" xml:space="preserve">
<rect fill="#414041" width="128" height="35"/>
<g>
	<path fill="#FFFFFF" d="M22.8,16.251c0-1.046-0.165-1.251-0.741-1.558l-0.389-0.206c-0.122-0.041-0.163-0.063-0.163-0.145v-0.121
		c0-0.083,0.041-0.126,0.163-0.185l2.03-1.048c0.124-0.061,0.207-0.082,0.29-0.082c0.123,0,0.142,0.122,0.142,0.247l0.105,1.458
		h0.081c0.616-0.944,1.58-1.787,2.464-1.787c0.697,0,1.044,0.432,1.044,0.903c0,0.595-0.492,1.005-0.861,1.005
		c-0.226,0-0.429-0.081-0.594-0.162c-0.165-0.102-0.413-0.165-0.676-0.165c-0.33,0-0.862,0.205-1.213,0.862
		c-0.121,0.225-0.206,0.595-0.206,0.656v4.269c0,0.635,0.146,0.842,0.576,0.842h0.964c0.123,0,0.143,0.059,0.143,0.184v0.368
		c0,0.122-0.02,0.186-0.101,0.186c-0.125,0-1.068-0.063-2.176-0.063c-1.272,0-2.133,0.063-2.257,0.063
		c-0.082,0-0.123-0.041-0.123-0.206v-0.348c0-0.144,0.042-0.184,0.226-0.184h0.802c0.307,0,0.45-0.124,0.45-0.392
		c0.022-0.678,0.022-1.395,0.022-2.461V16.251z"/>
	<path fill="#FFFFFF" d="M31.498,20.539c-0.941-1.126-1.128-1.887-1.128-3.344c0-1.046,0.554-2.358,1.764-3.303
		c1.066-0.822,2.073-0.986,2.75-0.986c1.128,0,2.257,0.576,2.874,1.19c0.923,0.946,1.396,2.011,1.396,3.344
		c0,2.236-2.012,4.515-4.535,4.515C33.632,21.956,32.359,21.565,31.498,20.539 M37.427,17.235c0-2.277-1.661-3.712-2.707-3.712
		c-0.554,0-1.089,0.123-1.581,0.657C32.341,15,32.052,15.841,32.052,17.4c0,1.148,0.124,1.93,0.78,2.873
		c0.473,0.677,1.067,1.067,2.031,1.067C36.423,21.341,37.427,19.432,37.427,17.235"/>
	<path fill="#FFFFFF" d="M43.254,21.361c-0.102-0.062-0.102-0.186-0.122-0.287l-0.349-1.949c-0.021-0.104,0.042-0.144,0.123-0.165
		l0.268-0.063c0.08-0.019,0.143,0.022,0.184,0.124l0.511,1.005c0.412,0.761,0.7,1.273,1.787,1.273c0.717,0,1.62-0.431,1.62-1.395
		c0-0.923-0.45-1.457-1.99-1.888c-1.209-0.35-2.42-0.986-2.42-2.606c0-1.414,1.333-2.504,2.873-2.504
		c0.986,0,1.519,0.247,1.887,0.431c0.307,0.143,0.349,0.247,0.37,0.37l0.308,1.437c0,0.082-0.042,0.144-0.143,0.184l-0.249,0.083
		c-0.08,0.021-0.122,0-0.183-0.102l-0.697-0.944c-0.248-0.39-0.636-0.801-1.438-0.801c-0.778,0-1.579,0.472-1.579,1.355
		c0,1.189,0.962,1.417,1.968,1.703c1.499,0.431,2.442,1.045,2.463,2.627c-0.021,1.662-1.374,2.708-3.118,2.708
		C44.322,21.956,43.502,21.547,43.254,21.361"/>
	<path fill="#FFFFFF" d="M53.638,16.251c-0.042,0.185-0.062,0.512-0.062,0.984c0,2.013,1.272,3.532,2.914,3.532
		c1.252,0,2.134-0.721,2.483-1.397c0.041-0.081,0.124-0.122,0.185-0.103l0.268,0.146c0.061,0.019,0.1,0.079,0,0.306
		c-0.372,0.82-1.438,2.237-3.265,2.237c-1.168,0-2.462-0.349-3.22-1.457c-0.718-1.047-0.903-1.806-0.903-3.242
		c0-0.801,0.206-2.174,1.293-3.261c0.881-0.904,1.908-1.088,2.934-1.088c2.359,0,3.016,2.214,3.016,3.015
		c0,0.288-0.245,0.328-0.574,0.328H53.638z M56.9,15.635c0.389,0,0.553-0.101,0.553-0.287c0-0.471-0.245-1.825-1.579-1.825
		c-0.902,0-1.765,0.594-2.154,2.112H56.9z"/>
	<path fill="#FFFFFF" d="M63.917,20.539c-0.944-1.126-1.128-1.887-1.128-3.344c0-1.046,0.555-2.358,1.764-3.303
		c1.067-0.822,2.072-0.986,2.751-0.986c1.128,0,2.255,0.576,2.873,1.19c0.924,0.946,1.396,2.011,1.396,3.344
		c0,2.236-2.014,4.515-4.536,4.515C66.051,21.956,64.779,21.565,63.917,20.539 M69.848,17.235c0-2.277-1.664-3.712-2.71-3.712
		c-0.552,0-1.087,0.123-1.579,0.657C64.76,15,64.473,15.841,64.473,17.4c0,1.148,0.123,1.93,0.778,2.873
		c0.473,0.677,1.065,1.067,2.033,1.067C68.843,21.341,69.848,19.432,69.848,17.235"/>
	<path fill="#FFFFFF" d="M83.432,20.603c0,0.327,0.183,0.432,0.451,0.432h0.657c0.183,0,0.224,0.059,0.224,0.184v0.327
		c0,0.145-0.041,0.227-0.164,0.227c-0.143,0-0.779-0.061-1.948-0.061c-1.047,0-1.703,0.061-1.847,0.061
		c-0.123,0-0.163-0.061-0.163-0.227v-0.327c0-0.144,0.062-0.184,0.265-0.184h0.598c0.224,0,0.388-0.104,0.409-0.474
		c0.021-0.533,0.04-1.19,0.04-1.723v-2.71c0-0.819,0-1.415-0.595-1.846c-0.492-0.37-0.984-0.37-1.498-0.37
		c-0.327,0-1.046,0.145-1.661,0.801c-0.411,0.453-0.473,1.005-0.473,1.395v4.248c0,0.555,0.062,0.679,0.492,0.679h0.513
		c0.165,0,0.206,0.059,0.206,0.205v0.349c0,0.123-0.041,0.184-0.145,0.184c-0.144,0-0.695-0.061-1.785-0.061
		c-1.045,0-1.702,0.061-1.826,0.061c-0.102,0-0.143-0.061-0.143-0.184v-0.37c0-0.125,0.041-0.184,0.205-0.184h0.595
		c0.269,0,0.409-0.064,0.409-0.413v-4.8c0-0.616-0.327-0.963-0.841-1.21l-0.163-0.083c-0.143-0.06-0.164-0.123-0.164-0.184v-0.104
		c0-0.102,0.084-0.164,0.184-0.206l1.765-0.984c0.164-0.083,0.286-0.145,0.37-0.145c0.102,0,0.143,0.082,0.164,0.247l0.144,1.252
		h0.041c0.595-0.739,1.786-1.499,2.811-1.499c0.616,0,1.252,0.122,1.743,0.452c0.615,0.41,1.131,1.437,1.131,1.95V20.603z"/>
	<path fill="#FFFFFF" d="M90.654,15.595c0,1.068,0,4.167,0.021,4.802c0.02,0.349,0.103,0.638,0.533,0.638h0.924
		c0.184,0,0.224,0.059,0.224,0.184v0.348c0,0.124-0.04,0.206-0.121,0.206c-0.145,0-1.048-0.063-2.319-0.063
		c-1.314,0-2.135,0.063-2.318,0.063c-0.103,0-0.145-0.082-0.145-0.206v-0.348c0-0.144,0.042-0.184,0.268-0.184h0.984
		c0.226,0,0.43-0.146,0.452-0.515c0.021-0.636,0.021-4.165,0.021-5.354v-1.294c0-1.457-0.021-3.324-0.064-3.856
		c-0.038-0.698-0.367-1.026-1.022-1.232L87.677,8.64c-0.102-0.042-0.121-0.061-0.121-0.103V8.373c0-0.062,0.06-0.101,0.185-0.143
		c0.717-0.329,1.643-0.699,2.399-1.19c0.185-0.125,0.309-0.165,0.431-0.165c0.144,0,0.185,0.104,0.165,0.37
		c-0.021,1.128-0.081,5.395-0.081,6.524V15.595z"/>
	<path fill="#FFFFFF" d="M94.736,26.244c0-0.431,0.453-0.801,0.944-0.801c0.39,0,0.758,0.187,0.941,0.227
		c0.146,0.02,0.311,0,0.434-0.122c0.308-0.37,1.354-2.711,1.642-3.51c-0.103-0.514-2.278-6.936-2.443-7.367
		c-0.245-0.512-0.431-0.862-0.963-0.862h-0.535c-0.142,0-0.163-0.06-0.163-0.184v-0.409c0-0.083,0.021-0.146,0.163-0.146
		c0.186,0,0.677,0.063,1.889,0.063c1.046,0,1.682-0.063,1.907-0.063c0.165,0,0.186,0.063,0.186,0.146v0.429
		c0,0.104-0.021,0.164-0.122,0.164h-0.39c-0.227,0-0.308,0.145-0.27,0.451c0.063,0.453,1.458,4.988,1.686,5.439h0.082
		c0.205-0.329,1.989-4.597,2.112-5.109c0.122-0.513-0.041-0.781-0.349-0.781h-0.328c-0.125,0-0.144-0.06-0.144-0.164v-0.41
		c0-0.102,0.019-0.165,0.123-0.165c0.266,0,0.697,0.063,1.683,0.063c0.552,0,1.025-0.063,1.253-0.063c0.12,0,0.12,0.083,0.12,0.165
		v0.39c0,0.124,0,0.184-0.101,0.184h-0.329c-0.226,0-0.512,0.104-0.719,0.37c-0.449,0.553-1.807,3.693-3.222,6.913
		c-1.006,2.276-1.805,4.186-2.174,4.863c-0.287,0.534-0.658,1.334-1.743,1.334C95.127,27.29,94.736,26.858,94.736,26.244"/>
	<path fill="#FFFFFF" d="M105.405,20.745c0-0.349,0.248-1.15,1.272-1.15c0.596,0,1.149,0.474,1.149,1.232
		c0,0.677-0.513,1.129-1.149,1.129C106.227,21.956,105.405,21.711,105.405,20.745"/>
</g>
</svg>
